<svg version="1.1" id="Layer_1" xmlns="http://www.w3.org/2000/svg" xmlns:xlink="http://www.w3.org/1999/xlink" x="0px" y="0px"
	 width="100%" viewBox="0 0 1024 1024" enable-background="new 0 0 1024 1024" xml:space="preserve">
<path fill="#bfa884" opacity="1.000000" stroke="none" 
	d="
M562.902222,261.396759 
	C563.713745,278.323578 564.743896,294.778564 565.127441,311.248657 
	C565.971802,347.507141 571.722717,383.075104 579.825134,418.303497 
	C585.358276,442.360687 593.888733,465.471191 602.880859,488.424927 
	C614.713989,518.630737 627.688354,548.437012 635.673462,580.022949 
	C641.986755,604.995728 644.880127,630.433228 644.948364,656.122009 
	C645.157349,734.777710 645.094299,813.434204 645.069946,892.090393 
	C645.061523,919.346802 627.257996,937.274902 600.029968,937.316895 
	C541.870850,937.406677 483.711334,937.389771 425.552124,937.315979 
	C399.575775,937.283020 381.231873,919.619019 381.106384,893.510986 
	C380.825348,835.020142 381.013184,776.526367 381.215454,718.034485 
	C381.247711,708.712280 381.484558,699.398865 381.298767,690.066284 
	C380.791473,664.585388 380.648590,639.058228 383.879547,613.743530 
	C387.519562,585.223511 395.658112,557.810364 406.369324,531.146057 
	C416.423645,506.116974 426.740784,481.171906 435.430939,455.635132 
	C446.773682,422.303680 453.725647,387.948639 457.858459,352.997589 
	C460.127869,333.804962 460.920319,314.528168 461.760254,295.243835 
	C462.730774,272.961212 463.837646,250.684250 464.977722,228.409561 
	C465.099243,226.034882 464.999237,224.299957 462.395050,223.244217 
	C450.657715,218.485901 446.068085,208.859116 446.050140,197.041901 
	C446.014008,173.222534 445.303925,149.387802 446.722168,125.581932 
	C447.965546,104.711807 463.697296,89.027046 485.741974,88.307220 
	C505.199768,87.671867 524.732544,87.180794 544.191528,88.691063 
	C563.115723,90.159821 578.500916,107.157303 579.431885,126.074814 
	C580.538757,148.564774 579.718628,171.049667 580.103760,193.532532 
	C580.331055,206.799805 576.907410,218.002823 563.224731,223.405716 
	C561.280945,224.173264 561.110107,225.804062 561.193237,227.532730 
	C561.728333,238.666214 562.280762,249.798874 562.902222,261.396759 
M608.498047,706.407410 
	C541.017395,706.404907 473.536621,706.439392 406.056152,706.315979 
	C401.605438,706.307861 399.938751,707.397583 399.953827,712.134460 
	C400.090576,755.121338 399.997925,798.108887 399.999542,841.096252 
	C399.999786,847.658081 400.063934,847.676575 406.726105,847.677490 
	C477.705688,847.687195 548.685364,847.633179 619.664551,847.812622 
	C624.933350,847.825928 626.087952,846.025208 626.052185,841.197144 
	C625.889404,819.205200 626.078796,797.210876 626.072083,775.217407 
	C626.065674,754.057007 625.898499,732.896362 625.985046,711.736511 
	C626.001831,707.638000 624.651428,706.001831 620.488770,706.333618 
	C616.845886,706.624023 613.162292,706.403931 608.498047,706.407410 
M541.203979,552.719421 
	C522.102661,570.693298 494.209564,568.297485 478.881714,545.756348 
	C472.771271,536.770203 465.971771,531.736633 456.000519,528.955017 
	C447.597137,526.610718 439.581299,522.877319 431.071655,519.636047 
	C429.069122,524.644653 427.216614,529.248596 425.386047,533.861206 
	C414.429169,561.470093 405.654388,589.643982 402.103912,619.303833 
	C399.639893,639.887817 400.105194,660.522156 400.036072,681.159729 
	C400.014221,687.680969 400.063354,687.697205 406.762421,687.698608 
	C455.908478,687.708618 505.054565,687.712585 554.200623,687.716553 
	C576.358032,687.718323 598.515381,687.705139 620.672791,687.727661 
	C623.503357,687.730530 625.991699,687.787903 625.988281,683.738403 
	C625.966309,657.777893 626.555420,631.814392 622.043335,606.057861 
	C617.829224,582.002136 610.439636,558.915894 601.687378,536.210083 
	C599.562073,530.696533 597.202881,525.273071 594.861877,519.591248 
	C582.192017,525.345398 569.651550,529.754333 556.860229,533.455688 
	C554.530579,534.129883 553.420349,535.938721 552.432251,537.903748 
	C549.711426,543.314270 546.203064,548.134277 541.203979,552.719421 
M549.587952,461.876526 
	C554.986023,459.271820 560.287537,456.433685 565.817566,454.148224 
	C569.243652,452.732300 569.625610,451.008759 568.618469,447.669830 
	C555.682495,404.780029 548.788513,360.873810 546.748779,316.160492 
	C545.747986,294.222473 544.836487,272.276642 543.446655,250.362152 
	C542.993469,243.215897 543.045349,236.054291 542.395325,228.925018 
	C542.141541,226.141403 541.296143,224.354446 537.856384,224.381851 
	C521.384644,224.513077 504.910706,224.497833 488.438843,224.369644 
	C484.877350,224.341934 483.488556,225.446487 483.313324,229.190750 
	C481.773254,262.095428 479.894196,294.984619 478.433868,327.892517 
	C477.384216,351.546234 474.060547,374.875153 469.701263,398.102844 
	C466.598816,414.633881 462.475800,430.908447 457.727997,447.027100 
	C456.733917,450.401947 456.876221,452.422791 460.687317,453.910645 
	C465.940887,455.961670 470.963837,458.653107 475.944519,461.332397 
	C478.452179,462.681366 480.138489,462.422028 481.977783,460.272797 
	C499.533325,439.758881 527.470459,441.038147 543.923279,460.138580 
	C545.213196,461.636017 546.495239,463.400879 549.587952,461.876526 
M623.644165,904.986938 
	C624.319458,902.942505 625.520569,900.913330 625.580444,898.851013 
	C625.860718,889.198242 625.812622,879.536255 625.913452,869.877808 
	C625.943970,866.952271 624.275635,866.264954 621.724731,866.307678 
	C616.729004,866.391418 611.730896,866.338074 606.733765,866.337585 
	C539.938477,866.331177 473.143036,866.381165 406.348206,866.205383 
	C401.167480,866.191711 399.674072,867.818481 399.930511,872.769653 
	C400.274567,879.413147 399.912079,886.090637 399.952515,892.752930 
	C400.049500,908.726501 409.958710,918.632935 425.914856,918.640442 
	C484.048401,918.667908 542.182007,918.620728 600.315430,918.699219 
	C610.581421,918.713074 618.305420,914.687012 623.644165,904.986938 
M539.839966,106.596802 
	C522.849670,106.553001 505.854126,106.233086 488.870697,106.553848 
	C475.586273,106.804749 466.303101,114.317245 465.387787,125.201340 
	C463.346039,149.479553 464.558167,173.821136 464.481140,198.135086 
	C464.464294,203.458481 467.406097,205.931458 472.762421,205.941544 
	C499.422211,205.991760 526.082214,205.991150 552.742004,205.932220 
	C558.731262,205.918991 561.613464,203.405869 561.566772,197.561005 
	C561.384277,174.746353 562.525391,151.912888 560.900513,129.119019 
	C559.898193,115.057793 554.355286,109.073029 539.839966,106.596802 
M533.095337,476.431091 
	C528.677429,470.331787 523.416016,465.344818 515.568359,464.331787 
	C505.769379,463.066833 499.024689,468.328888 493.612518,475.550842 
	C481.680389,491.473022 481.317749,516.959595 492.545624,533.363586 
	C500.994507,545.707458 513.079102,549.091492 524.343079,542.181091 
	C528.516541,539.620667 531.994873,536.239868 534.393860,531.959229 
	C544.740173,513.498230 544.025208,495.170868 533.095337,476.431091 
M444.192078,486.535065 
	C442.433380,491.685760 439.559174,496.451019 438.603882,502.211517 
	C447.286072,506.087677 455.780426,510.030731 464.743103,512.497864 
	C465.194977,511.779388 465.520081,511.503815 465.518677,511.229889 
	C465.466797,501.052551 466.095428,490.975769 469.512695,481.253815 
	C470.092255,479.604980 469.295166,478.332153 467.755585,477.583954 
	C462.251221,474.908997 456.738098,472.252167 450.593994,469.281799 
	C448.452209,475.020508 446.441315,480.408447 444.192078,486.535065 
M560.332581,505.361877 
	C560.707764,507.704712 559.370605,510.337982 561.616882,512.646240 
	C569.460999,509.967621 577.286072,507.262115 584.906982,503.948456 
	C587.712158,502.728729 587.512451,501.041199 586.613586,498.757904 
	C584.054504,492.257751 581.653503,485.694672 579.041199,479.216461 
	C577.827148,476.205872 577.507385,472.794403 575.319580,470.045288 
	C568.708435,473.114075 562.302734,476.087494 555.753845,479.127411 
	C558.614075,487.620636 560.530396,495.844604 560.332581,505.361877 
z"/>
</svg>