<svg version="1.1" id="Layer_1" xmlns="http://www.w3.org/2000/svg" xmlns:xlink="http://www.w3.org/1999/xlink" x="0px" y="0px"
	 width="100%" viewBox="0 0 918 1239" enable-background="new 0 0 918 1239" xml:space="preserve">
<path fill="#bfa884" opacity="1.000000" stroke="none" 
	d="
M115.000702,87.691559 
	C176.325592,87.704292 237.150345,87.718124 297.975098,87.723160 
	C444.456482,87.735298 590.937866,87.753891 737.419250,87.744316 
	C767.748169,87.742340 798.077209,87.652184 828.405945,87.537971 
	C832.047791,87.524261 833.960632,88.567101 833.957825,92.691650 
	C833.882812,202.681946 834.066833,312.672760 833.791626,422.662445 
	C833.680786,466.941162 826.276245,510.171570 810.976807,551.772278 
	C800.599304,579.989441 787.398071,606.883850 770.284058,631.807739 
	C727.855896,693.597595 673.060486,740.337097 603.859192,769.759583 
	C575.390076,781.863892 545.820068,790.065430 515.244263,794.687378 
	C514.452942,794.807007 513.670837,794.987854 512.691528,795.177490 
	C512.691528,878.997253 512.691528,962.588318 512.691528,1046.682861 
	C577.478638,1046.682861 641.998596,1046.682861 706.813721,1046.682861 
	C706.813721,1080.921997 706.813721,1114.657959 706.813721,1148.728149 
	C542.688477,1148.728149 378.773102,1148.728149 214.301483,1148.728149 
	C214.301483,1115.065674 214.301483,1081.357788 214.301483,1047.041504 
	C278.616455,1047.041504 343.136993,1047.041504 407.987518,1047.041504 
	C407.987518,962.703064 407.987518,878.969727 407.987518,795.686646 
	C392.114136,792.083008 376.228394,789.209167 360.769775,784.828064 
	C316.499512,772.281860 275.834320,752.362488 238.960083,724.579590 
	C198.829025,694.342773 165.436066,658.203369 139.811478,614.932434 
	C113.555130,570.594666 97.309258,522.831177 90.140594,471.836182 
	C85.593666,439.491211 86.883408,406.995758 86.852966,374.535522 
	C86.766235,282.044037 86.874939,189.552399 86.906555,97.060829 
	C86.907570,94.095505 86.906677,91.130188 86.906677,87.688652 
	C96.291565,87.688652 105.396065,87.688652 115.000702,87.691559 
M560.499878,189.970200 
	C437.653900,189.970200 314.807922,189.970200 191.651672,189.970200 
	C191.651672,251.655899 191.651672,312.575531 191.651672,373.809448 
	C200.764435,369.360229 209.169785,365.140594 217.671555,361.125061 
	C259.988708,341.138092 304.590698,333.516663 351.163727,336.479797 
	C380.422119,338.341370 407.759857,347.578461 434.890717,357.792816 
	C459.381866,367.013367 481.897858,380.188446 504.998962,392.214813 
	C529.548950,404.995483 555.434448,414.061066 583.177979,415.748627 
	C622.383179,418.133392 658.549133,407.488007 691.734131,386.908539 
	C703.437561,379.650726 714.405396,371.186157 725.501770,362.991943 
	C727.167664,361.761810 728.605286,358.993866 728.614563,356.930420 
	C728.805786,314.282745 728.775696,271.634064 728.787292,228.985596 
	C728.790771,216.209579 728.787781,203.433548 728.787781,189.971130 
	C672.702026,189.971130 617.100952,189.971130 560.499878,189.970200 
M697.236023,550.707336 
	C707.674316,530.226990 715.995544,508.984314 721.524902,486.702118 
	C706.014648,492.737732 691.579895,499.153137 676.639160,504.013184 
	C637.975464,516.590027 598.387451,521.140076 557.924866,515.193787 
	C522.005554,509.915192 488.546265,497.089935 456.202271,481.161560 
	C436.829315,471.621033 418.103546,460.712097 398.477081,451.754272 
	C373.982330,440.574402 348.018921,434.134888 320.890442,436.427124 
	C276.316040,440.193420 237.236938,457.705658 202.793777,485.999054 
	C200.625504,487.780243 200.368088,489.279053 201.058701,491.869904 
	C215.756790,547.010010 244.302307,593.418762 287.833038,630.536499 
	C334.838623,670.617126 389.160278,692.191101 450.829193,694.668152 
	C501.617554,696.708191 549.305847,685.061890 593.202515,659.346008 
	C637.865784,633.180908 672.730408,597.337036 697.236023,550.707336 
z"/>
</svg>