<svg version="1.1" id="Layer_1" xmlns="http://www.w3.org/2000/svg" xmlns:xlink="http://www.w3.org/1999/xlink" x="0px" y="0px"
	 width="100%" viewBox="0 0 880 1024" enable-background="new 0 0 880 1024" xml:space="preserve">
<path fill="#bfa884" opacity="1.000000" stroke="none" 
	d="
M286.013184,244.929443 
	C394.842010,244.942352 503.172791,244.952026 611.503540,244.960907 
	C619.973999,244.961609 620.059753,245.060364 620.060181,253.669830 
	C620.062683,301.335388 620.082764,349.000977 620.074768,396.666534 
	C620.071472,416.605713 617.756042,436.285889 611.268494,455.168976 
	C593.751343,506.155304 560.402405,542.622986 510.479248,563.594421 
	C499.372009,568.260315 487.863098,571.501221 475.984650,573.413513 
	C472.386963,573.992737 471.137848,575.730652 471.151947,579.464233 
	C471.284149,614.462891 471.287567,649.462341 471.156677,684.460999 
	C471.140961,688.666443 472.603088,689.836548 476.665161,689.812561 
	C502.662354,689.658936 528.660828,689.716736 554.658875,689.718628 
	C561.221191,689.719116 561.277466,689.782227 561.281921,696.480042 
	C561.289978,708.646423 561.157104,720.814575 561.337585,732.978210 
	C561.398621,737.095093 559.956604,738.469116 555.826965,738.464050 
	C482.828705,738.374634 409.830261,738.372864 336.832031,738.478516 
	C332.465698,738.484802 330.907043,736.977051 330.961731,732.701355 
	C331.119415,720.370361 331.150787,708.034546 330.979065,695.704163 
	C330.916046,691.178833 332.546143,689.641052 337.131561,689.670227 
	C362.963165,689.834167 388.796509,689.736328 414.629242,689.711792 
	C420.925171,689.705872 421.583099,689.173889 421.592407,682.959045 
	C421.644073,648.459961 421.564301,613.960388 421.707153,579.461731 
	C421.724274,575.330444 419.886963,574.064148 416.274658,573.321289 
	C349.238281,559.534241 304.491119,519.920776 281.400452,455.838501 
	C275.463562,439.362122 272.606354,422.079712 272.625519,404.416412 
	C272.680664,353.584320 272.636261,302.752167 272.636871,251.920013 
	C272.636963,245.033585 272.652588,245.033173 279.516663,244.973495 
	C281.516144,244.956116 283.515625,244.941772 286.013184,244.929443 
M471.759979,388.707611 
	C484.541992,394.306335 497.741425,398.581909 511.851807,397.460602 
	C532.184509,395.844910 550.067688,387.823944 565.999817,375.181519 
	C568.752075,372.997528 569.860229,370.654938 569.840881,367.150513 
	C569.717834,344.819946 569.649414,322.486755 569.899536,300.158234 
	C569.955139,295.198792 568.098999,293.813293 563.543091,293.880249 
	C549.882385,294.081055 536.218079,294.078827 522.555176,294.086182 
	C458.083618,294.120972 393.612061,294.130188 329.140503,294.155914 
	C322.433655,294.158569 322.271637,294.339447 322.265869,301.280396 
	C322.246368,324.777924 322.227051,348.275482 322.234619,371.773010 
	C322.235138,373.349182 321.768311,375.121033 323.471985,376.315826 
	C323.974854,376.172333 324.473175,376.094574 324.914093,375.891968 
	C326.123688,375.336151 327.306244,374.721832 328.504608,374.141205 
	C360.740295,358.523224 393.714905,355.722595 427.787598,367.839844 
	C442.953003,373.233063 456.892731,381.026520 471.759979,388.707611 
M357.856018,488.654938 
	C390.913727,521.519165 430.418335,534.178528 475.704071,522.847229 
	C520.479309,511.643616 549.479492,482.190155 564.336243,438.676514 
	C564.846069,437.183411 565.629028,435.561737 564.616577,433.669922 
	C561.802979,432.628754 559.635620,434.687347 557.303894,435.614105 
	C533.748901,444.975800 509.613434,448.723389 484.504395,443.381744 
	C466.758118,439.606445 450.273315,432.597351 434.518890,423.747589 
	C420.940491,416.120117 406.965729,409.436493 391.145142,408.328033 
	C368.414581,406.735413 348.863831,415.142151 330.743713,428.040192 
	C326.849518,430.812134 326.610046,433.671234 327.910736,437.744171 
	C333.982056,456.756134 343.290894,473.831848 357.856018,488.654938 
z"/>
</svg>